<?xml version="1.0" encoding="UTF-8"?> <svg xmlns="http://www.w3.org/2000/svg" xmlns:xlink="http://www.w3.org/1999/xlink" version="1.1" id="Layer_1" x="0px" y="0px" width="1000px" height="1000px" viewBox="0 0 1000 1000" style="enable-background:new 0 0 1000 1000;" xml:space="preserve"> <style type="text/css"> .st0{fill:none;stroke:#000000;stroke-width:4;stroke-miterlimit:10;} .st1{fill:none;stroke:#000000;stroke-miterlimit:10;} </style> <g> <line class="st0" x1="1000" y1="0" x2="0" y2="0"></line> <g> <line class="st1" x1="1000" y1="100" x2="0" y2="100"></line> <line class="st1" x1="1000" y1="200" x2="0" y2="200"></line> <line class="st1" x1="1000" y1="300" x2="0" y2="300"></line> <line class="st1" x1="1000" y1="400" x2="0" y2="400"></line> <line class="st1" x1="1000" y1="500" x2="0" y2="500"></line> <line class="st1" x1="1000" y1="600" x2="0" y2="600"></line> <line class="st1" x1="1000" y1="700" x2="0" y2="700"></line> <line class="st1" x1="1000" y1="800" x2="0" y2="800"></line> <line class="st1" x1="1000" y1="900" x2="0" y2="900"></line> </g> </g> <g> <line class="st0" x1="0" y1="0" x2="0" y2="1000"></line> <g> <line class="st1" x1="100" y1="0" x2="100" y2="1000"></line> <line class="st1" x1="200" y1="0" x2="200" y2="1000"></line> <line class="st1" x1="300" y1="0" x2="300" y2="1000"></line> <line class="st1" x1="400" y1="0" x2="400" y2="1000"></line> <line class="st1" x1="500" y1="0" x2="500" y2="1000"></line> <line class="st1" x1="600" y1="0" x2="600" y2="1000"></line> <line class="st1" x1="700" y1="0" x2="700" y2="1000"></line> <line class="st1" x1="800" y1="0" x2="800" y2="1000"></line> <line class="st1" x1="900" y1="0" x2="900" y2="1000"></line> </g> </g> </svg> 